<svg xmlns="http://www.w3.org/2000/svg" viewBox="0 0 100 100" width="100" height="100">
  <defs>
    <linearGradient id="gold-grad" x1="0%" y1="0%" x2="100%" y2="100%">
      <stop offset="0%" stop-color="#E8E8E8" />
      <stop offset="100%" stop-color="#FFFFFF" />
    </linearGradient>
    <linearGradient id="bg-grad" x1="0%" y1="0%" x2="100%" y2="100%">
      <stop offset="0%" stop-color="#111111" />
      <stop offset="100%" stop-color="#222222" />
    </linearGradient>
  </defs>
  <!-- Background Shield/Hexagon -->
  <rect width="100" height="100" rx="20" fill="url(#bg-grad)" />
  <polygon points="50,15 85,35 85,75 50,90 15,75 15,35" fill="none" stroke="url(#gold-grad)" stroke-width="4" stroke-linejoin="round" />
  <!-- Letter R -->
  <path d="M35 30 H48 C55 30 59 33 59 38 C59 43 55 46 48 46 H35 V30 Z M35 46 H45 L57 70 H48 L39 49 H35 V70 H29 V30 H35" fill="url(#gold-grad)" />
  <!-- Letter S -->
  <path d="M71 43 C71 34 62 30 55 33 L57 39 C61 37 66 38 66 42 C66 47 52 45 52 57 C52 66 61 71 68 67 L66 61 C62 63 58 62 58 58 C58 53 71 55 71 43 Z" fill="url(#gold-grad)" />
</svg>
